<svg xmlns="http://www.w3.org/2000/svg" viewBox="0 0 410.16 95.55"><defs><style>.cls-1{fill:#fff;}.cls-2{fill:#00b0ff;}.cls-3{fill:#80d8ff;}.cls-4{fill:#40c4ff;}</style></defs><title>Dark Logo</title><g id="Layer_2" data-name="Layer 2"><g id="Layer_1-2" data-name="Layer 1"><path class="cls-1" d="M122,18.8h5.74l16.39,41.57h-6.91l-4.39-11.3h-16l-4.33,11.3h-7Zm9.54,25.41-6.67-17.86L118,44.2Z"/><path class="cls-1" d="M145.66,45a16.68,16.68,0,0,1,1.11-6.09,14.92,14.92,0,0,1,8.2-8.46,16.45,16.45,0,0,1,6.56-1.26,15.44,15.44,0,0,1,8.17,2.08,13.18,13.18,0,0,1,5.12,5.53l-6.26,2a8.07,8.07,0,0,0-3-3,8.17,8.17,0,0,0-4.16-1.08,8.59,8.59,0,0,0-6.5,2.9A10.14,10.14,0,0,0,153,40.87a11.74,11.74,0,0,0-.7,4.16,11.4,11.4,0,0,0,.73,4.13,10.59,10.59,0,0,0,2,3.31,9.19,9.19,0,0,0,2.93,2.2,8.2,8.2,0,0,0,3.54.79,8.73,8.73,0,0,0,2.34-.32,8.34,8.34,0,0,0,3.84-2.25,5.09,5.09,0,0,0,1.08-1.64l6.32,1.87A12.52,12.52,0,0,1,170,58.75a15.77,15.77,0,0,1-8.43,2.2,16,16,0,0,1-6.5-1.29,15.23,15.23,0,0,1-5-3.48,15.74,15.74,0,0,1-3.22-5.06A16.31,16.31,0,0,1,145.66,45Z"/><path class="cls-1" d="M178.1,45a16.68,16.68,0,0,1,1.11-6.09,14.92,14.92,0,0,1,8.2-8.46A16.45,16.45,0,0,1,194,29.22a15.44,15.44,0,0,1,8.17,2.08,13.18,13.18,0,0,1,5.12,5.53l-6.26,2a8.07,8.07,0,0,0-3-3,8.17,8.17,0,0,0-4.16-1.08,8.59,8.59,0,0,0-6.5,2.9,10.14,10.14,0,0,0-1.93,3.25,11.74,11.74,0,0,0-.7,4.16,11.4,11.4,0,0,0,.73,4.13,10.59,10.59,0,0,0,2,3.31,9.19,9.19,0,0,0,2.93,2.2,8.2,8.2,0,0,0,3.54.79,8.73,8.73,0,0,0,2.34-.32,8.34,8.34,0,0,0,3.84-2.25,5.09,5.09,0,0,0,1.08-1.64l6.32,1.87a12.52,12.52,0,0,1-5.09,5.65,15.77,15.77,0,0,1-8.43,2.2,16,16,0,0,1-6.5-1.29,15.23,15.23,0,0,1-5-3.48,15.74,15.74,0,0,1-3.22-5.06A16.31,16.31,0,0,1,178.1,45Z"/><path class="cls-1" d="M226.28,60.95a15.91,15.91,0,0,1-6.53-1.29,15,15,0,0,1-8.11-8.52,17,17,0,0,1,0-12.12A15,15,0,0,1,214.83,34a15.55,15.55,0,0,1,5-3.45,16.88,16.88,0,0,1,12.94,0,15.57,15.57,0,0,1,5,3.45A15,15,0,0,1,240.91,39a17.07,17.07,0,0,1,0,12.12,15,15,0,0,1-3.19,5.07,15.57,15.57,0,0,1-5,3.45A15.77,15.77,0,0,1,226.28,60.95Zm-9.13-15.81a11.56,11.56,0,0,0,.7,4.1,10.14,10.14,0,0,0,1.93,3.25,9,9,0,0,0,2.9,2.17,8.6,8.6,0,0,0,7.2,0,8.88,8.88,0,0,0,2.9-2.2,10.54,10.54,0,0,0,1.93-3.28,12.21,12.21,0,0,0,0-8.17,10.48,10.48,0,0,0-1.93-3.31,8.84,8.84,0,0,0-2.9-2.2,8.3,8.3,0,0,0-3.6-.79,7.91,7.91,0,0,0-3.54.82,9.2,9.2,0,0,0-2.9,2.22,10.92,10.92,0,0,0-2,3.31A11.24,11.24,0,0,0,217.15,45.14Z"/><path class="cls-1" d="M257.19,60.95q-4.8,0-7.26-3.13t-2.46-9.34V29.74h6.44V47.19q0,8.25,5.85,8.25a9,9,0,0,0,5.21-1.7,10.89,10.89,0,0,0,3.81-4.92V29.74h6.44v23a2.53,2.53,0,0,0,.38,1.58,1.83,1.83,0,0,0,1.38.53v5.5q-1,.18-1.64.23c-.43,0-.84.06-1.23.06a4.68,4.68,0,0,1-3-1,3.19,3.19,0,0,1-1.29-2.49l-.12-3a13.66,13.66,0,0,1-5.33,5.07A15.22,15.22,0,0,1,257.19,60.95Z"/><path class="cls-1" d="M310.87,60.36h-6.44V43.21q0-4.33-1.38-6.29A4.65,4.65,0,0,0,299,35a8,8,0,0,0-2.81.53A9.81,9.81,0,0,0,293.54,37a11.59,11.59,0,0,0-2.2,2.28,10.44,10.44,0,0,0-1.49,2.9V60.36h-6.44V29.74h5.85v6.15A12.46,12.46,0,0,1,294.36,31a15.4,15.4,0,0,1,7.38-1.79,9.06,9.06,0,0,1,4.51,1A7.47,7.47,0,0,1,309,32.93a11.93,11.93,0,0,1,1.43,4,26.73,26.73,0,0,1,.41,4.77Z"/><path class="cls-1" d="M335.11,58.78a32.1,32.1,0,0,1-3.4,1.32,14.39,14.39,0,0,1-4.62.73,9.83,9.83,0,0,1-2.87-.41,7,7,0,0,1-2.37-1.23,5.55,5.55,0,0,1-1.61-2.14,7.82,7.82,0,0,1-.59-3.19V34.72h-4v-5h4V19.67h6.44V29.74h6.67v5h-6.67v17.1a3.19,3.19,0,0,0,1,2.37,3.48,3.48,0,0,0,2.25.73,7.15,7.15,0,0,0,2.58-.47q1.23-.47,1.82-.76Z"/><path class="cls-2" d="M370.94,54.27q-5.8,6.38-13.35,6.38a16.73,16.73,0,0,1-7.76-1.82,20.43,20.43,0,0,1-6.15-4.8,22.57,22.57,0,0,1-4.07-6.76,21.28,21.28,0,0,1-1.46-7.76,22.38,22.38,0,0,1,1.44-8,21.26,21.26,0,0,1,4-6.7,19.7,19.7,0,0,1,6.09-4.62,17.14,17.14,0,0,1,7.67-1.73,21.55,21.55,0,0,1,5.56.67A17,17,0,0,1,367.4,21a14.3,14.3,0,0,1,3.4,2.87,17.92,17.92,0,0,1,2.43,3.66l-3.16,2.11A13.45,13.45,0,0,0,364.73,24a15.1,15.1,0,0,0-7.43-1.82,13.18,13.18,0,0,0-6.24,1.46,15,15,0,0,0-4.74,3.89,17.81,17.81,0,0,0-3,5.56,20.13,20.13,0,0,0-1.05,6.47,18.63,18.63,0,0,0,1.2,6.67,17.68,17.68,0,0,0,3.31,5.53,16.11,16.11,0,0,0,4.95,3.78A13.72,13.72,0,0,0,357.88,57a14.73,14.73,0,0,0,6.82-1.67,20.22,20.22,0,0,0,6.24-5.3V43.09h-9.25V39.93h12.7V60.36h-3.45Z"/><path class="cls-2" d="M395,60.95a14.48,14.48,0,0,1-6.09-1.26,15,15,0,0,1-4.77-3.43,15.52,15.52,0,0,1-3.13-5,16.52,16.52,0,0,1-1.11-6A16.31,16.31,0,0,1,381,39.11a15.94,15.94,0,0,1,3.16-5A15.35,15.35,0,0,1,389,30.62a14,14,0,0,1,6-1.29,14.25,14.25,0,0,1,6.06,1.29,15.24,15.24,0,0,1,4.8,3.45,16,16,0,0,1,3.16,5,16.31,16.31,0,0,1,1.14,6.09,16.55,16.55,0,0,1-1.11,6,15.54,15.54,0,0,1-3.13,5,14.89,14.89,0,0,1-4.8,3.43A14.68,14.68,0,0,1,395,60.95ZM383.93,45.26a12.71,12.71,0,0,0,.88,4.77,13,13,0,0,0,2.37,3.87,10.72,10.72,0,0,0,3.51,2.61,10.11,10.11,0,0,0,4.3.94,9.85,9.85,0,0,0,4.3-1,11.42,11.42,0,0,0,3.54-2.63,12.52,12.52,0,0,0,2.4-3.89,13.48,13.48,0,0,0,0-9.57,12.46,12.46,0,0,0-2.4-3.92,11.38,11.38,0,0,0-3.54-2.63,9.85,9.85,0,0,0-4.3-1,9.66,9.66,0,0,0-4.27,1,11.28,11.28,0,0,0-3.51,2.66,12.82,12.82,0,0,0-2.4,3.95A13.19,13.19,0,0,0,383.93,45.26Z"/><path class="cls-1" d="M20.3,95.55h-.06A14.93,14.93,0,0,1,5.65,80.34L5.9,15.11A14.93,14.93,0,0,1,20.56,0h.05A14.13,14.13,0,0,1,28,2.1L82,34.94a15.21,15.21,0,0,1,7.17,13L83.66,48h-.43V48a9.2,9.2,0,0,0-4.3-7.9L24.87,7.2A8.17,8.17,0,0,0,20.59,6a8.88,8.88,0,0,0-8.7,9.14l-.25,65.24a8.94,8.94,0,0,0,8.63,9.21h0a8.25,8.25,0,0,0,4.29-1.2L78.82,56a9.12,9.12,0,0,0,4.41-7.89l6-.07v.17a15,15,0,0,1-7.32,12.92L27.68,93.49A14.21,14.21,0,0,1,20.3,95.55Z"/><path class="cls-3" d="M13,37H6.51C2.93,37,0,40.37,0,44.49V66.88C0,71,2.91,74.34,6.49,74.34H13c3.59,0,6.49-3.33,6.5-7.46V44.5C19.49,40.38,16.59,37,13,37Z"/><path class="cls-2" d="M65,7.22H58.46c-3.59,0-6.49,3.33-6.49,7.46l0,52.23c0,4.12,2.9,7.46,6.49,7.46h6.49c3.59,0,6.49-3.33,6.5-7.46l0-52.23C71.44,10.56,68.54,7.22,65,7.22Z"/><path class="cls-4" d="M39,22.13H32.48c-3.58,0-6.49,3.33-6.5,7.46l0,37.31c0,4.12,2.91,7.46,6.49,7.46h6.49c3.59,0,6.49-3.33,6.5-7.46l0-37.31C45.47,25.47,42.56,22.13,39,22.13Z"/></g></g></svg>